<svg width="32" height="32" viewBox="0 0 32 32" fill="none" xmlns="http://www.w3.org/2000/svg">
  <rect x="8" y="12" width="16" height="10" rx="2" stroke="#7c2d12" stroke-width="2" fill="white"/>
  <rect x="10" y="14" width="12" height="6" fill="#7c2d12" opacity="0.1"/>
  <rect x="12" y="16" width="8" height="2" fill="#7c2d12" opacity="0.3"/>
  <circle cx="16" cy="17" r="1" fill="#7c2d12"/>
  <rect x="6" y="10" width="2" height="2" fill="#7c2d12"/>
  <rect x="6" y="14" width="2" height="2" fill="#7c2d12"/>
  <rect x="6" y="18" width="2" height="2" fill="#7c2d12"/>
  <rect x="6" y="22" width="2" height="2" fill="#7c2d12"/>
  <rect x="24" y="10" width="2" height="2" fill="#7c2d12"/>
  <rect x="24" y="14" width="2" height="2" fill="#7c2d12"/>
  <rect x="24" y="18" width="2" height="2" fill="#7c2d12"/>
  <rect x="24" y="22" width="2" height="2" fill="#7c2d12"/>
  <rect x="4" y="8" width="24" height="2" fill="#7c2d12"/>
  <rect x="2" y="6" width="28" height="2" fill="#7c2d12"/>
  <rect x="0" y="4" width="32" height="2" fill="#7c2d12"/>
  <rect x="14" y="24" width="4" height="2" fill="#7c2d12"/>
  <rect x="12" y="26" width="8" height="1" fill="#7c2d12"/>
</svg>





