<svg width="32" height="32" viewBox="0 0 32 32" fill="none" xmlns="http://www.w3.org/2000/svg">
  <rect x="6" y="10" width="20" height="12" rx="2" stroke="#10b981" stroke-width="2" fill="white"/>
  <rect x="8" y="12" width="16" height="8" fill="#10b981" opacity="0.1"/>
  <rect x="10" y="14" width="12" height="4" fill="#10b981" opacity="0.3"/>
  <circle cx="12" cy="16" r="1" fill="#10b981"/>
  <circle cx="16" cy="16" r="1" fill="#10b981"/>
  <circle cx="20" cy="16" r="1" fill="#10b981"/>
  <rect x="4" y="8" width="2" height="2" fill="#10b981"/>
  <rect x="4" y="12" width="2" height="2" fill="#10b981"/>
  <rect x="4" y="16" width="2" height="2" fill="#10b981"/>
  <rect x="4" y="20" width="2" height="2" fill="#10b981"/>
  <rect x="26" y="8" width="2" height="2" fill="#10b981"/>
  <rect x="26" y="12" width="2" height="2" fill="#10b981"/>
  <rect x="26" y="16" width="2" height="2" fill="#10b981"/>
  <rect x="26" y="20" width="2" height="2" fill="#10b981"/>
  <rect x="8" y="6" width="16" height="2" fill="#10b981"/>
  <rect x="10" y="4" width="12" height="2" fill="#10b981"/>
</svg>





